<?xml version="1.0" encoding="UTF-8" standalone="no"?>
<!DOCTYPE svg PUBLIC "-//W3C//DTD SVG 1.1//EN" "http://www.w3.org/Graphics/SVG/1.1/DTD/svg11.dtd">
<svg width="100%" height="100%" viewBox="0 0 1505 396" version="1.1" xmlns="http://www.w3.org/2000/svg" xmlns:xlink="http://www.w3.org/1999/xlink" xml:space="preserve" xmlns:serif="http://www.serif.com/" style="fill-rule:evenodd;clip-rule:evenodd;stroke-linecap:round;stroke-linejoin:round;stroke-miterlimit:1.5;">
    <g transform="matrix(1,0,0,1,-526.607,-1497.92)">
        <g transform="matrix(4.16667,0,0,4.16667,-600.318,-597.43)">
            <g transform="matrix(0.24,0,0,0.24,144.076,143.383)">
                <path d="M2028.69,1883.33L2028.69,1891.67L528.69,1891.67L528.69,1883.33L2016.02,1883.33L2016.02,1871.49L528.69,1871.49L528.69,1863.16L2016.02,1863.16L2016.02,1851.32L528.69,1851.32L528.69,1842.98L2016.02,1842.98L2016.02,1831.14L528.69,1831.14L528.69,1822.81L2016.02,1822.81L2016.02,1810.97L528.69,1810.97L528.69,1802.63L2016.02,1802.63L2016.02,1790.79L528.69,1790.79L528.69,1782.46L2016.02,1782.46L2016.02,1770.61L528.69,1770.61L528.69,1762.28L2016.02,1762.28L2016.02,1750.44L528.69,1750.44L528.69,1742.11L2016.02,1742.11L2016.02,1730.26L528.69,1730.26L528.69,1721.93L2016.02,1721.93L2016.02,1710.09L528.69,1710.09L528.69,1701.75L2016.02,1701.75L2016.02,1689.91L528.69,1689.91L528.69,1681.58L2016.02,1681.58L2016.02,1669.74L528.69,1669.74L528.69,1661.4L2016.02,1661.4L2016.02,1649.56L528.69,1649.56L528.69,1641.23L2016.02,1641.23L2016.02,1629.39L528.69,1629.39L528.69,1621.05L2016.02,1621.05L2016.02,1609.21L528.69,1609.21L528.69,1600.88L2016.02,1600.88L2016.02,1589.04L528.69,1589.04L528.69,1580.7L2016.02,1580.7L2016.02,1568.86L528.69,1568.86L528.69,1560.53L2016.02,1560.53L2016.02,1548.68L528.69,1548.68L528.69,1540.35L2016.02,1540.35L2016.02,1528.51L528.69,1528.51L528.69,1520.17L2016.02,1520.17L2016.02,1508.33L528.69,1508.33L528.69,1500L2028.69,1500L2028.69,1883.33Z" style="fill:none;stroke:black;stroke-width:4.17px;"/>
            </g>
        </g>
    </g>
</svg>
